<?xml version="1.0" standalone="no"?>
<!DOCTYPE svg PUBLIC "-//W3C//DTD SVG 20010904//EN"
 "http://www.w3.org/TR/2001/REC-SVG-20010904/DTD/svg10.dtd">
<svg version="1.0" xmlns="http://www.w3.org/2000/svg"
 width="864.000000pt" height="864.000000pt" viewBox="0 0 864.000000 864.000000"
 preserveAspectRatio="xMidYMid meet">
<metadata>
Created by potrace 1.11, written by Peter Selinger 2001-2013
</metadata>
<g transform="translate(0.000000,864.000000) scale(0.100000,-0.100000)"
fill="#000000" stroke="none">
<path d="M3235 7493 c-104 -10 -357 -57 -467 -87 -388 -107 -773 -306 -1080
-558 -56 -47 -166 -150 -243 -229 -432 -444 -692 -973 -792 -1609 -26 -165
-26 -645 0 -810 100 -638 360 -1166 797 -1614 246 -252 494 -434 795 -581 356
-175 697 -267 1095 -295 85 -6 598 -10 1239 -10 1036 0 1093 1 1089 18 -3 9
-272 670 -599 1468 l-593 1451 -271 6 c-148 4 -489 10 -756 13 l-486 7 -7
-286 c-4 -158 -5 -291 -2 -296 3 -4 257 -12 564 -16 l558 -7 352 -862 c194
-473 355 -871 359 -884 l6 -23 -734 4 c-779 4 -811 6 -1039 57 -816 182 -1482
811 -1715 1620 -65 226 -80 344 -80 635 0 291 15 409 80 635 178 620 613 1144
1185 1430 307 153 591 227 921 239 l165 6 -112 290 -112 290 -38 1 c-22 1 -57
-1 -79 -3z"/>
<path d="M3577 7458 c224 -560 2329 -5735 2332 -5732 8 8 2340 5759 2336 5762
-2 2 -524 -396 -1160 -884 -636 -489 -1160 -890 -1165 -892 -6 -2 -2096 1583
-2348 1781 -9 7 -7 -5 5 -35z"/>
</g>
</svg>
